<?xml version="1.0" standalone="no"?>
<!-- Link to external css file -->
<?xml-stylesheet type="text/css" href="../css/styles.css"?> 
<!DOCTYPE svg PUBLIC "-//W3C//DTD SVG 20010904//EN"
 "http://www.w3.org/TR/2001/REC-SVG-20010904/DTD/svg10.dtd">
<svg version="1.0" id='textSvgObj' class='svgObj' xmlns="http://www.w3.org/2000/svg"
 width="341.000000pt" height="255.000000pt" viewBox="0 0 341.000000 255.000000"
 preserveAspectRatio="xMidYMid meet">
<metadata>
Created by potrace 1.10, written by Peter Selinger 2001-2011
</metadata>
<g transform="translate(0.000000,255.000000) scale(0.100000,-0.100000)"
fill="#000000" stroke="none">
<path id='textObj' d="M1784 2409 c-18 -5 -48 -27 -69 -50 l-37 -41 4 -127 c4 -146 18 -184
74 -207 43 -18 85 -6 139 39 37 30 44 57 21 76 -10 9 -25 4 -66 -24 -28 -19
-56 -35 -62 -35 -7 0 -38 59 -38 74 0 2 20 17 45 33 48 30 54 43 30 63 -12 10
-24 11 -50 2 l-35 -10 0 34 c0 65 24 92 103 118 24 8 32 33 17 51 -14 17 -30
18 -76 4z"/>
<path d="M1559 2324 c-8 -10 -13 -41 -13 -83 l1 -67 -49 -18 c-28 -10 -52 -15
-55 -13 -2 3 -5 38 -6 78 -2 62 -5 74 -20 77 -10 2 -25 -2 -34 -9 -13 -11 -15
-31 -10 -119 8 -157 49 -270 99 -270 29 0 33 28 9 76 -33 68 -29 86 25 108 25
10 46 17 47 15 2 -2 12 -31 23 -63 22 -64 41 -83 69 -72 19 7 18 23 -10 116
-10 30 -18 95 -19 145 -1 50 -6 96 -10 103 -10 17 -31 15 -47 -4z"/>
<path d="M1190 2269 c-103 -56 -130 -77 -130 -100 0 -30 29 -35 70 -12 l36 21
36 -111 c19 -62 45 -129 58 -149 24 -42 53 -49 70 -19 8 16 3 34 -24 88 -33
65 -66 171 -66 209 0 12 15 27 38 39 27 15 37 26 37 45 0 39 -39 36 -125 -11z"/>
<path d="M2230 2011 c-14 -28 -13 -194 2 -209 18 -18 62 -14 75 7 13 21 20
165 9 199 -10 29 -70 32 -86 3z"/>
<path d="M1949 1827 c-57 -38 -73 -84 -77 -230 -3 -70 -1 -184 3 -253 6 -104
10 -129 26 -145 22 -22 39 -24 64 -6 15 11 18 26 16 78 -1 35 -4 79 -7 97 -5
27 -3 32 14 32 16 0 31 -22 67 -92 54 -106 71 -128 96 -128 25 0 49 27 49 56
0 13 -22 67 -50 119 l-49 95 31 50 c25 41 32 64 36 125 6 92 -13 150 -64 195
-44 38 -104 41 -155 7z m110 -126 c19 -59 7 -127 -29 -163 -48 -48 -60 -39
-60 45 0 85 14 143 38 156 26 16 36 8 51 -38z"/>
<path d="M345 1793 c-56 -29 -84 -63 -95 -118 -12 -58 -2 -150 26 -226 8 -24
33 -120 55 -212 22 -93 44 -177 49 -187 48 -89 195 -76 250 22 47 83 24 230
-45 282 l-33 26 25 52 c21 42 26 68 26 126 0 63 -4 81 -34 140 -28 56 -42 71
-79 90 -51 26 -103 28 -145 5z m110 -109 c41 -44 58 -140 35 -198 -10 -26 -67
-69 -84 -63 -17 6 -56 150 -56 205 0 50 2 54 33 67 43 19 44 19 72 -11z m48
-394 c14 -11 31 -36 37 -55 29 -87 -37 -197 -69 -117 -13 33 -41 150 -41 175
0 24 41 22 73 -3z"/>
<path d="M1713 1780 c-91 -19 -154 -68 -172 -135 -30 -114 -37 -397 -10 -446
5 -10 30 -30 55 -45 58 -34 106 -29 180 20 59 40 67 63 34 96 -26 26 -43 25
-90 -6 -53 -35 -87 -28 -96 21 -11 60 1 83 49 96 74 19 107 68 70 104 -15 16
-55 15 -99 -2 -18 -7 -18 11 2 96 l15 69 47 12 c26 7 55 14 64 17 49 12 64 71
26 97 -12 9 -25 16 -28 15 -3 -1 -24 -5 -47 -9z"/>
<path d="M1156 1757 c-16 -12 -18 -38 -20 -287 -2 -205 -7 -295 -19 -353 -19
-93 -10 -127 33 -127 45 0 59 27 71 138 6 57 14 114 18 128 6 24 7 23 43 -24
48 -65 75 -119 93 -189 20 -78 61 -106 99 -67 19 18 19 19 5 86 -13 61 -46
129 -101 210 -21 32 -41 64 -44 73 -4 9 12 35 41 67 92 102 112 163 64 189
-31 16 -50 3 -114 -79 -33 -41 -65 -77 -71 -79 -7 -3 -13 44 -17 144 -5 136
-8 149 -28 165 -25 21 -30 22 -53 5z"/>
<path d="M2535 1733 c-41 -21 -84 -62 -103 -98 -25 -48 -21 -147 11 -233 15
-40 27 -89 27 -108 0 -77 -54 -144 -133 -164 -60 -15 -72 -23 -75 -56 -14
-114 224 -32 287 99 30 61 28 159 -4 260 -29 91 -31 117 -9 160 21 41 16 37
65 48 64 15 88 58 51 92 -23 21 -78 21 -117 0z"/>
<path d="M783 1696 c-66 -30 -81 -91 -63 -256 6 -58 13 -145 16 -195 7 -118
10 -132 35 -146 16 -8 27 -8 45 2 23 12 24 18 24 106 0 103 -2 100 75 119 l25
6 0 -110 c0 -87 3 -114 16 -126 20 -20 34 -20 63 1 24 16 24 17 17 158 -8 170
-24 249 -66 338 -46 98 -114 136 -187 103z m84 -134 c7 -15 21 -49 32 -75 l21
-48 -26 -9 c-14 -6 -36 -13 -49 -16 l-25 -6 0 89 c0 49 3 92 6 96 11 11 29 -3
41 -31z"/>
<path d="M1642 954 c-31 -21 -29 -67 3 -88 47 -31 75 -121 55 -181 l-11 -35
-31 16 c-49 25 -135 15 -165 -20 -12 -15 -25 -39 -29 -54 -3 -15 -12 -50 -20
-79 -24 -82 1 -190 55 -236 37 -31 79 -41 134 -33 54 9 79 30 107 92 35 78 40
102 30 155 -8 42 -6 58 13 107 17 44 22 77 21 144 0 78 -3 91 -30 135 -25 41
-83 93 -103 93 -4 0 -17 -7 -29 -16z m-11 -380 c11 -14 10 -18 -6 -30 -24 -18
-28 -18 -55 4 -13 11 -20 24 -16 30 11 17 61 15 77 -4z m36 -141 c-9 -55 -30
-88 -57 -91 -40 -5 -60 18 -66 73 l-6 50 67 0 67 0 -5 -32z"/>
<path d="M1117 810 c-39 -12 -55 -27 -78 -73 -18 -35 -21 -61 -22 -269 l-2
-229 32 -30 c44 -39 72 -44 138 -25 72 22 126 71 166 152 29 58 32 73 31 156
0 111 -25 189 -80 250 -60 67 -118 88 -185 68z m98 -125 c37 -41 59 -95 63
-163 6 -83 -13 -146 -57 -193 -35 -36 -85 -59 -99 -44 -11 10 -2 386 9 407 14
26 56 22 84 -7z"/>
<path d="M3157 797 c-13 -9 -20 -36 -27 -103 -10 -98 -45 -221 -90 -319 -28
-61 -82 -125 -105 -125 -39 0 -67 71 -95 245 -11 72 -26 142 -31 157 -33 84
-155 75 -200 -14 -51 -100 -102 -342 -83 -395 7 -22 17 -29 41 -31 40 -4 46 7
67 125 26 141 68 284 81 271 2 -2 18 -79 35 -172 33 -182 42 -205 88 -250 36
-34 105 -46 152 -26 43 18 106 92 147 175 40 79 91 267 100 366 5 59 3 69 -16
88 -24 24 -40 26 -64 8z"/>
<path d="M2312 767 c-62 -35 -106 -152 -106 -287 -1 -146 38 -195 154 -193 73
2 108 16 116 48 11 43 -15 60 -94 60 l-67 0 -3 48 -3 47 55 0 c48 0 58 3 71
24 13 19 14 29 6 45 -11 20 -21 24 -78 36 -36 7 -38 12 -21 49 14 33 37 39 99
31 40 -6 54 -4 70 11 24 22 24 49 -1 74 -17 17 -33 20 -97 20 -43 -1 -88 -6
-101 -13z"/>
<path d="M1857 725 c-10 -9 -17 -24 -17 -33 1 -43 40 -62 129 -62 39 0 71 -3
71 -6 0 -3 -43 -54 -96 -112 -107 -120 -159 -207 -149 -252 8 -38 65 -87 110
-96 42 -8 159 3 197 18 46 18 48 71 3 88 -13 5 -64 6 -114 3 -62 -4 -91 -3
-91 5 0 14 107 149 181 229 68 74 85 127 52 172 -31 42 -70 55 -169 59 -75 3
-94 1 -107 -13z"/>
</g>
</svg>
